<svg xmlns="http://www.w3.org/2000/svg" width="130" height="130" viewBox="0 0 130 130">
  <g id="Group_7922" data-name="Group 7922" transform="translate(-155 -576)">
    <g id="Ellipse_42" data-name="Ellipse 42" transform="translate(155 576)" fill="none" stroke="#ff0" stroke-width="3">
      <circle cx="65" cy="65" r="65" stroke="none"/>
      <circle cx="65" cy="65" r="63.5" fill="none"/>
    </g>
    <path id="Path_36942" data-name="Path 36942" d="M-9.574,2.79a17.8,17.8,0,0,0,2-.1,12.693,12.693,0,0,0,1.716-.309,11.686,11.686,0,0,0,1.519-.5q.712-.291,1.425-.666V-4.71H-7.08a.793.793,0,0,1-.572-.206.673.673,0,0,1-.216-.506V-7.485H.383V2.827A14.907,14.907,0,0,1-1.727,4.1a14.367,14.367,0,0,1-2.344.909,16.971,16.971,0,0,1-2.672.544,25.017,25.017,0,0,1-3.094.178,13.959,13.959,0,0,1-5.363-1,12.348,12.348,0,0,1-4.2-2.812,12.769,12.769,0,0,1-2.747-4.341,15.241,15.241,0,0,1-.984-5.569,15.615,15.615,0,0,1,.966-5.606,12.334,12.334,0,0,1,2.756-4.341,12.317,12.317,0,0,1,4.331-2.8,15.51,15.51,0,0,1,5.691-.994,17.575,17.575,0,0,1,2.963.234,13.849,13.849,0,0,1,2.541.675,11.836,11.836,0,0,1,2.166,1.069A13.232,13.232,0,0,1,.139-18.341l-1.031,1.65a.949.949,0,0,1-.825.506,1.329,1.329,0,0,1-.656-.206q-.469-.262-1.05-.637a8.993,8.993,0,0,0-1.416-.722,11.4,11.4,0,0,0-1.969-.591A12.961,12.961,0,0,0-9.5-18.585a10.9,10.9,0,0,0-4.106.741,8.686,8.686,0,0,0-3.131,2.119,9.377,9.377,0,0,0-1.987,3.337,13.112,13.112,0,0,0-.694,4.4A13.323,13.323,0,0,0-18.7-3.444,9.6,9.6,0,0,0-16.661-.06a8.78,8.78,0,0,0,3.112,2.119A10.468,10.468,0,0,0-9.574,2.79ZM34.676-7.991a15.509,15.509,0,0,1-.956,5.541,12.688,12.688,0,0,1-2.7,4.341,12.067,12.067,0,0,1-4.191,2.822,14.132,14.132,0,0,1-5.409,1,14.061,14.061,0,0,1-5.4-1A12.087,12.087,0,0,1,11.839,1.89a12.688,12.688,0,0,1-2.7-4.341,15.509,15.509,0,0,1-.956-5.541,15.509,15.509,0,0,1,.956-5.541,12.789,12.789,0,0,1,2.7-4.35,12.133,12.133,0,0,1,4.181-2.841,13.947,13.947,0,0,1,5.4-1.013,14.016,14.016,0,0,1,5.409,1.013,12.113,12.113,0,0,1,4.191,2.841,12.789,12.789,0,0,1,2.7,4.35A15.509,15.509,0,0,1,34.676-7.991Zm-3.731,0a13.655,13.655,0,0,0-.675-4.444,9.4,9.4,0,0,0-1.912-3.328,8.3,8.3,0,0,0-3-2.091,10.184,10.184,0,0,0-3.937-.731,10.133,10.133,0,0,0-3.919.731,8.388,8.388,0,0,0-3.009,2.091,9.323,9.323,0,0,0-1.922,3.328A13.655,13.655,0,0,0,11.9-7.991a13.57,13.57,0,0,0,.675,4.434A9.335,9.335,0,0,0,14.492-.238,8.289,8.289,0,0,0,17.5,1.843a10.249,10.249,0,0,0,3.919.722,10.3,10.3,0,0,0,3.937-.722,8.2,8.2,0,0,0,3-2.081A9.411,9.411,0,0,0,30.27-3.557,13.57,13.57,0,0,0,30.945-7.991Z" transform="translate(214.38 648.985)" fill="#fff"/>
  </g>
</svg>
