<svg xmlns="http://www.w3.org/2000/svg" xmlns:xlink="http://www.w3.org/1999/xlink" width="79.065" height="106.545" viewBox="0 0 79.065 106.545">
  <defs>
    <clipPath id="clip-path">
      <rect id="Rectangle_3112" data-name="Rectangle 3112" width="42.857" height="50" fill="#009105"/>
    </clipPath>
  </defs>
  <g id="Group_8563" data-name="Group 8563" transform="translate(-850 -215.905)">
    <g id="Group_7919" data-name="Group 7919" transform="translate(868 272.45)">
      <g id="Group_7918" data-name="Group 7918" clip-path="url(#clip-path)">
        <path id="Path_36932" data-name="Path 36932" d="M41.811,26.046a3.567,3.567,0,0,0-5.05,0L25,37.807V3.571a3.571,3.571,0,1,0-7.143,0V37.807L6.1,26.046a3.571,3.571,0,0,0-5.05,5.05L18.9,48.95a3.582,3.582,0,0,0,5.057,0L41.811,31.1a3.567,3.567,0,0,0,0-5.05" transform="translate(-0.001)" fill="#009105"/>
      </g>
    </g>
    <path id="Path_37340" data-name="Path 37340" d="M-28.29-8.3a5.294,5.294,0,0,1,.368.73q.157.383.307.773.15-.4.315-.773t.375-.744l7.275-12.73a.848.848,0,0,1,.405-.4,1.932,1.932,0,0,1,.6-.072H-16.5V-.811h-2.55V-16.026q0-.3.015-.65t.045-.708L-26.355-4.438a1.161,1.161,0,0,1-1.05.65h-.42a1.161,1.161,0,0,1-1.05-.65l-7.53-12.99q.045.376.068.737t.022.665V-.811h-2.55V-21.517h2.145a1.932,1.932,0,0,1,.6.072.848.848,0,0,1,.405.4ZM-8.595-.811V-22.1H-5.91v8.756a7.714,7.714,0,0,1,2.167-1.7,5.92,5.92,0,0,1,2.8-.643A5.774,5.774,0,0,1,1.44-15.2a4.787,4.787,0,0,1,1.815,1.423A6.76,6.76,0,0,1,4.41-11.439a11.555,11.555,0,0,1,.4,3.215,9.756,9.756,0,0,1-.45,3.013A7.169,7.169,0,0,1,3.068-2.8,6.062,6.062,0,0,1,1-1.194a6.3,6.3,0,0,1-2.752.585,5.239,5.239,0,0,1-2.5-.549A5.619,5.619,0,0,1-6.045-2.69L-6.18-1.36a.636.636,0,0,1-.69.549Zm6.78-12.817A4.428,4.428,0,0,0-4.1-13.05,6.5,6.5,0,0,0-5.91-11.417v7.08a4.144,4.144,0,0,0,1.6,1.344,4.767,4.767,0,0,0,1.957.39A3.9,3.9,0,0,0,.915-4.062a6.631,6.631,0,0,0,1.14-4.161,10.018,10.018,0,0,0-.262-2.456,4.717,4.717,0,0,0-.758-1.683A2.927,2.927,0,0,0-.18-13.324,4.176,4.176,0,0,0-1.815-13.628Zm12.9,17.773V-15.448h1.59a.677.677,0,0,1,.72.535l.225,1.734a8.04,8.04,0,0,1,2.227-1.835,5.862,5.862,0,0,1,2.887-.694,5.662,5.662,0,0,1,2.37.484,4.854,4.854,0,0,1,1.815,1.43,6.755,6.755,0,0,1,1.155,2.348,11.633,11.633,0,0,1,.405,3.222,9.756,9.756,0,0,1-.45,3.013A7.244,7.244,0,0,1,22.74-2.8a5.987,5.987,0,0,1-2.062,1.6,6.3,6.3,0,0,1-2.753.585,5.852,5.852,0,0,1-2.408-.448,5.414,5.414,0,0,1-1.762-1.272V4.145ZM17.85-13.628a4.428,4.428,0,0,0-2.287.578,6.5,6.5,0,0,0-1.807,1.633v7.08a4.254,4.254,0,0,0,1.612,1.344,4.767,4.767,0,0,0,1.958.39A3.887,3.887,0,0,0,20.58-4.062a6.631,6.631,0,0,0,1.14-4.161,10.018,10.018,0,0,0-.263-2.456,4.716,4.716,0,0,0-.757-1.683,2.927,2.927,0,0,0-1.215-.961A4.176,4.176,0,0,0,17.85-13.628Zm21.5.592a.6.6,0,0,1-.555.318,1.072,1.072,0,0,1-.51-.159q-.285-.159-.7-.354a6.706,6.706,0,0,0-.983-.361,4.855,4.855,0,0,0-1.35-.166,4.125,4.125,0,0,0-1.215.166,2.959,2.959,0,0,0-.923.455,2.033,2.033,0,0,0-.585.672,1.75,1.75,0,0,0-.2.831,1.353,1.353,0,0,0,.338.939,2.924,2.924,0,0,0,.892.65,7.956,7.956,0,0,0,1.26.484q.7.21,1.447.448t1.448.527a5.3,5.3,0,0,1,1.26.722A3.332,3.332,0,0,1,39.863-6.8,3.151,3.151,0,0,1,40.2-5.29a4.629,4.629,0,0,1-.375,1.871,4.091,4.091,0,0,1-1.11,1.488,5.406,5.406,0,0,1-1.8.99,7.654,7.654,0,0,1-2.46.361,7.933,7.933,0,0,1-2.88-.5,7.353,7.353,0,0,1-2.19-1.279l.63-.983a.9.9,0,0,1,.285-.289.825.825,0,0,1,.435-.1,1.029,1.029,0,0,1,.57.2q.3.2.727.448a5.7,5.7,0,0,0,1.035.448,4.884,4.884,0,0,0,1.523.2,4.32,4.32,0,0,0,1.365-.2,2.9,2.9,0,0,0,.975-.527,2.094,2.094,0,0,0,.577-.766,2.3,2.3,0,0,0,.188-.925,1.5,1.5,0,0,0-.338-1,2.833,2.833,0,0,0-.892-.679A7.435,7.435,0,0,0,35.2-7.017q-.713-.21-1.455-.441t-1.455-.527a5.154,5.154,0,0,1-1.267-.744,3.392,3.392,0,0,1-.892-1.105,3.463,3.463,0,0,1-.338-1.6,3.774,3.774,0,0,1,.36-1.611A3.966,3.966,0,0,1,31.2-14.4a5.223,5.223,0,0,1,1.695-.932,7.019,7.019,0,0,1,2.3-.347,7.506,7.506,0,0,1,2.693.455,6.41,6.41,0,0,1,2.063,1.25Z" transform="translate(888.865 238)"/>
  </g>
</svg>
