<svg xmlns="http://www.w3.org/2000/svg" width="130" height="224.789" viewBox="0 0 130 224.789">
  <g id="Group_8558" data-name="Group 8558" transform="translate(-1740 -397.175)">
    <g id="Group_7922" data-name="Group 7922" transform="translate(1585 -84.036)">
      <g id="Ellipse_42" data-name="Ellipse 42" transform="translate(155 576)" fill="none" stroke="#ff0" stroke-width="3">
        <circle cx="65" cy="65" r="65" stroke="none"/>
        <circle cx="65" cy="65" r="63.5" fill="none"/>
      </g>
      <path id="Path_36942" data-name="Path 36942" d="M-9.574,2.79a17.8,17.8,0,0,0,2-.1,12.693,12.693,0,0,0,1.716-.309,11.686,11.686,0,0,0,1.519-.5q.712-.291,1.425-.666V-4.71H-7.08a.793.793,0,0,1-.572-.206.673.673,0,0,1-.216-.506V-7.485H.383V2.827A14.907,14.907,0,0,1-1.727,4.1a14.367,14.367,0,0,1-2.344.909,16.971,16.971,0,0,1-2.672.544,25.017,25.017,0,0,1-3.094.178,13.959,13.959,0,0,1-5.363-1,12.348,12.348,0,0,1-4.2-2.812,12.769,12.769,0,0,1-2.747-4.341,15.241,15.241,0,0,1-.984-5.569,15.615,15.615,0,0,1,.966-5.606,12.334,12.334,0,0,1,2.756-4.341,12.317,12.317,0,0,1,4.331-2.8,15.51,15.51,0,0,1,5.691-.994,17.575,17.575,0,0,1,2.963.234,13.849,13.849,0,0,1,2.541.675,11.836,11.836,0,0,1,2.166,1.069A13.232,13.232,0,0,1,.139-18.341l-1.031,1.65a.949.949,0,0,1-.825.506,1.329,1.329,0,0,1-.656-.206q-.469-.262-1.05-.637a8.993,8.993,0,0,0-1.416-.722,11.4,11.4,0,0,0-1.969-.591A12.961,12.961,0,0,0-9.5-18.585a10.9,10.9,0,0,0-4.106.741,8.686,8.686,0,0,0-3.131,2.119,9.377,9.377,0,0,0-1.987,3.337,13.112,13.112,0,0,0-.694,4.4A13.323,13.323,0,0,0-18.7-3.444,9.6,9.6,0,0,0-16.661-.06a8.78,8.78,0,0,0,3.112,2.119A10.468,10.468,0,0,0-9.574,2.79ZM34.676-7.991a15.509,15.509,0,0,1-.956,5.541,12.688,12.688,0,0,1-2.7,4.341,12.067,12.067,0,0,1-4.191,2.822,14.132,14.132,0,0,1-5.409,1,14.061,14.061,0,0,1-5.4-1A12.087,12.087,0,0,1,11.839,1.89a12.688,12.688,0,0,1-2.7-4.341,15.509,15.509,0,0,1-.956-5.541,15.509,15.509,0,0,1,.956-5.541,12.789,12.789,0,0,1,2.7-4.35,12.133,12.133,0,0,1,4.181-2.841,13.947,13.947,0,0,1,5.4-1.013,14.016,14.016,0,0,1,5.409,1.013,12.113,12.113,0,0,1,4.191,2.841,12.789,12.789,0,0,1,2.7,4.35A15.509,15.509,0,0,1,34.676-7.991Zm-3.731,0a13.655,13.655,0,0,0-.675-4.444,9.4,9.4,0,0,0-1.912-3.328,8.3,8.3,0,0,0-3-2.091,10.184,10.184,0,0,0-3.937-.731,10.133,10.133,0,0,0-3.919.731,8.388,8.388,0,0,0-3.009,2.091,9.323,9.323,0,0,0-1.922,3.328A13.655,13.655,0,0,0,11.9-7.991a13.57,13.57,0,0,0,.675,4.434A9.335,9.335,0,0,0,14.492-.238,8.289,8.289,0,0,0,17.5,1.843a10.249,10.249,0,0,0,3.919.722,10.3,10.3,0,0,0,3.937-.722,8.2,8.2,0,0,0,3-2.081A9.411,9.411,0,0,0,30.27-3.557,13.57,13.57,0,0,0,30.945-7.991Z" transform="translate(214.38 648.985)"/>
    </g>
    <path id="Path_37325" data-name="Path 37325" d="M-47.387-13.272a9.175,9.175,0,0,1,.6,1.245q.259.654.506,1.319.247-.691.518-1.319t.617-1.27l11.962-21.728a1.42,1.42,0,0,1,.666-.691,3.067,3.067,0,0,1,.987-.123H-28V-.5h-4.193v-25.97q0-.518.025-1.11t.074-1.208l-12.11,22.1a1.9,1.9,0,0,1-1.726,1.11h-.691a1.9,1.9,0,0,1-1.726-1.11L-60.73-28.859q.074.641.111,1.258t.037,1.135V-.5h-4.193V-35.838h3.527a3.067,3.067,0,0,1,.987.123,1.42,1.42,0,0,1,.666.691ZM-15-.5V-36.825h4.415v14.946a12.764,12.764,0,0,1,3.564-2.9,9.442,9.442,0,0,1,4.6-1.1,9.194,9.194,0,0,1,3.921.814,7.922,7.922,0,0,1,2.984,2.429,11.717,11.717,0,0,1,1.9,4,20.432,20.432,0,0,1,.666,5.488A17.239,17.239,0,0,1,6.3-8.006,12.39,12.39,0,0,1,4.171-3.887,10.026,10.026,0,0,1,.768-1.15a10.031,10.031,0,0,1-4.526,1,8.353,8.353,0,0,1-4.106-.937A9.34,9.34,0,0,1-10.812-3.7l-.222,2.269A1.056,1.056,0,0,1-12.168-.5ZM-3.857-22.372a7.072,7.072,0,0,0-3.761.987A10.842,10.842,0,0,0-10.59-18.6V-6.514A6.881,6.881,0,0,0-7.963-4.22a7.59,7.59,0,0,0,3.219.666A6.324,6.324,0,0,0,.632-6.045q1.874-2.491,1.874-7.1a17.724,17.724,0,0,0-.432-4.193A8.2,8.2,0,0,0,.829-20.214a4.846,4.846,0,0,0-2-1.64A6.645,6.645,0,0,0-3.857-22.372ZM17.354,7.963V-25.48h2.614a1.119,1.119,0,0,1,1.184.913l.37,2.96a13.338,13.338,0,0,1,3.662-3.132,9.356,9.356,0,0,1,4.748-1.184,9.018,9.018,0,0,1,3.9.826,8.034,8.034,0,0,1,2.984,2.442,11.709,11.709,0,0,1,1.9,4.008,20.57,20.57,0,0,1,.666,5.5,17.239,17.239,0,0,1-.74,5.142,12.523,12.523,0,0,1-2.121,4.119A9.9,9.9,0,0,1,33.126-1.15a10.031,10.031,0,0,1-4.526,1,9.315,9.315,0,0,1-3.958-.765,8.92,8.92,0,0,1-2.9-2.17V7.963ZM28.477-22.372a7.072,7.072,0,0,0-3.761.987A10.842,10.842,0,0,0,21.744-18.6V-6.514A7.059,7.059,0,0,0,24.395-4.22a7.59,7.59,0,0,0,3.219.666,6.3,6.3,0,0,0,5.352-2.491q1.874-2.491,1.874-7.1a17.724,17.724,0,0,0-.432-4.193,8.2,8.2,0,0,0-1.245-2.873,4.846,4.846,0,0,0-2-1.64A6.645,6.645,0,0,0,28.477-22.372Zm35.342,1.011a.973.973,0,0,1-.913.543,1.717,1.717,0,0,1-.839-.271q-.469-.271-1.147-.6a10.771,10.771,0,0,0-1.615-.617,7.706,7.706,0,0,0-2.22-.284,6.55,6.55,0,0,0-2,.284,4.8,4.8,0,0,0-1.517.777,3.437,3.437,0,0,0-.962,1.147,3.079,3.079,0,0,0-.333,1.418,2.363,2.363,0,0,0,.555,1.6,4.822,4.822,0,0,0,1.467,1.11,12.793,12.793,0,0,0,2.072.826q1.159.358,2.38.765t2.38.9A8.636,8.636,0,0,1,63.2-12.532a5.64,5.64,0,0,1,1.467,1.813,5.548,5.548,0,0,1,.555,2.577,8.162,8.162,0,0,1-.617,3.194,6.97,6.97,0,0,1-1.825,2.54,8.8,8.8,0,0,1-2.96,1.689A12.159,12.159,0,0,1,55.779-.1a12.617,12.617,0,0,1-4.735-.851,12,12,0,0,1-3.6-2.183l1.036-1.677a1.5,1.5,0,0,1,.469-.493,1.316,1.316,0,0,1,.715-.173,1.653,1.653,0,0,1,.937.345q.493.345,1.2.765a9.2,9.2,0,0,0,1.7.765,7.756,7.756,0,0,0,2.5.345,6.862,6.862,0,0,0,2.244-.333,4.714,4.714,0,0,0,1.6-.9A3.565,3.565,0,0,0,60.8-5.8a4.062,4.062,0,0,0,.308-1.578,2.618,2.618,0,0,0-.555-1.714,4.683,4.683,0,0,0-1.467-1.159A11.958,11.958,0,0,0,57-11.089q-1.172-.358-2.392-.752t-2.392-.9a8.41,8.41,0,0,1-2.084-1.27A5.754,5.754,0,0,1,48.664-15.9a6.1,6.1,0,0,1-.555-2.725,6.647,6.647,0,0,1,.592-2.75,6.744,6.744,0,0,1,1.726-2.318,8.5,8.5,0,0,1,2.787-1.591,11.153,11.153,0,0,1,3.773-.592,11.935,11.935,0,0,1,4.427.777,10.477,10.477,0,0,1,3.391,2.133Z" transform="translate(1804.775 434)"/>
  </g>
</svg>
