<svg xmlns="http://www.w3.org/2000/svg" width="104" height="104" viewBox="0 0 104 104">
  <g id="Group_7922" data-name="Group 7922" transform="translate(-155 -576)">
    <g id="Ellipse_42" data-name="Ellipse 42" transform="translate(155 576)" fill="none" stroke="#ff0" stroke-width="2">
      <circle cx="52" cy="52" r="52" stroke="none"/>
      <circle cx="52" cy="52" r="51" fill="none"/>
    </g>
    <path id="Path_36942" data-name="Path 36942" d="M-12.285-2.115a14.242,14.242,0,0,0,1.6-.082,10.154,10.154,0,0,0,1.373-.247,9.349,9.349,0,0,0,1.215-.4q.57-.232,1.14-.533v-4.74h-3.33a.634.634,0,0,1-.457-.165.539.539,0,0,1-.173-.4v-1.65h6.6v8.25a11.926,11.926,0,0,1-1.688,1.02,11.494,11.494,0,0,1-1.875.728A13.577,13.577,0,0,1-10.02.1,20.014,20.014,0,0,1-12.495.24a11.167,11.167,0,0,1-4.29-.8,9.879,9.879,0,0,1-3.36-2.25,10.215,10.215,0,0,1-2.2-3.473,12.193,12.193,0,0,1-.788-4.455,12.492,12.492,0,0,1,.772-4.485,9.867,9.867,0,0,1,2.2-3.472,9.854,9.854,0,0,1,3.465-2.243,12.408,12.408,0,0,1,4.553-.8,14.06,14.06,0,0,1,2.37.188,11.079,11.079,0,0,1,2.032.54A9.469,9.469,0,0,1-6-20.153,10.586,10.586,0,0,1-4.515-19.02L-5.34-17.7A.759.759,0,0,1-6-17.3a1.063,1.063,0,0,1-.525-.165q-.375-.21-.84-.51A7.194,7.194,0,0,0-8.5-18.548a9.118,9.118,0,0,0-1.575-.472,10.369,10.369,0,0,0-2.153-.195,8.716,8.716,0,0,0-3.285.593,6.948,6.948,0,0,0-2.505,1.695,7.5,7.5,0,0,0-1.59,2.67,10.49,10.49,0,0,0-.555,3.517A10.659,10.659,0,0,0-19.582-7.1a7.681,7.681,0,0,0,1.628,2.707A7.024,7.024,0,0,0-15.465-2.7,8.374,8.374,0,0,0-12.285-2.115Zm35.4-8.625a12.407,12.407,0,0,1-.765,4.433,10.151,10.151,0,0,1-2.16,3.473A9.654,9.654,0,0,1,16.838-.578a11.305,11.305,0,0,1-4.328.8,11.249,11.249,0,0,1-4.32-.8A9.67,9.67,0,0,1,4.845-2.835a10.151,10.151,0,0,1-2.16-3.473A12.407,12.407,0,0,1,1.92-10.74a12.407,12.407,0,0,1,.765-4.432,10.232,10.232,0,0,1,2.16-3.48A9.707,9.707,0,0,1,8.19-20.925a11.157,11.157,0,0,1,4.32-.81,11.213,11.213,0,0,1,4.328.81,9.69,9.69,0,0,1,3.353,2.272,10.232,10.232,0,0,1,2.16,3.48A12.407,12.407,0,0,1,23.115-10.74Zm-2.985,0a10.924,10.924,0,0,0-.54-3.555,7.519,7.519,0,0,0-1.53-2.662,6.639,6.639,0,0,0-2.4-1.673,8.147,8.147,0,0,0-3.15-.585,8.107,8.107,0,0,0-3.135.585,6.711,6.711,0,0,0-2.408,1.673A7.458,7.458,0,0,0,5.43-14.3a10.924,10.924,0,0,0-.54,3.555,10.856,10.856,0,0,0,.54,3.548A7.468,7.468,0,0,0,6.968-4.538,6.631,6.631,0,0,0,9.375-2.873,8.2,8.2,0,0,0,12.51-2.3a8.241,8.241,0,0,0,3.15-.578,6.561,6.561,0,0,0,2.4-1.665,7.529,7.529,0,0,0,1.53-2.655A10.856,10.856,0,0,0,20.13-10.74Z" transform="translate(207.13 638.735)"/>
  </g>
</svg>
