<svg xmlns="http://www.w3.org/2000/svg" xmlns:xlink="http://www.w3.org/1999/xlink" width="113.623" height="27.562" viewBox="0 0 113.623 27.562">
  <defs>
    <clipPath id="clip-path">
      <rect id="Rectangle_3112" data-name="Rectangle 3112" width="23.623" height="27.56" fill="#3e00ac"/>
    </clipPath>
  </defs>
  <g id="Group_8587" data-name="Group 8587" transform="translate(-133.377 -286)">
    <path id="Path_37325" data-name="Path 37325" d="M-54.075-22.331a5.647,5.647,0,0,1,.372.766q.159.4.311.812.152-.425.319-.812t.379-.782l7.361-13.371a.874.874,0,0,1,.41-.425,1.887,1.887,0,0,1,.607-.076h2.17v21.749h-2.58V-30.451q0-.319.015-.683t.046-.744l-7.452,13.6a1.17,1.17,0,0,1-1.062.683H-53.6a1.17,1.17,0,0,1-1.062-.683l-7.619-13.644q.046.395.068.774t.023.7v15.982h-2.58V-36.218h2.17a1.887,1.887,0,0,1,.607.076.874.874,0,0,1,.41.425Zm19.928,7.862V-36.825h2.717v9.2a7.855,7.855,0,0,1,2.193-1.783,5.81,5.81,0,0,1,2.831-.675,5.658,5.658,0,0,1,2.413.5,4.875,4.875,0,0,1,1.836,1.495,7.211,7.211,0,0,1,1.169,2.459,12.574,12.574,0,0,1,.41,3.377,10.609,10.609,0,0,1-.455,3.164,7.625,7.625,0,0,1-1.313,2.535,6.17,6.17,0,0,1-2.094,1.685,6.173,6.173,0,0,1-2.785.615,5.141,5.141,0,0,1-2.527-.577,5.748,5.748,0,0,1-1.814-1.609l-.137,1.4a.65.65,0,0,1-.7.577Zm6.86-13.462a4.352,4.352,0,0,0-2.315.607,6.672,6.672,0,0,0-1.829,1.715v7.437a4.234,4.234,0,0,0,1.616,1.411,4.671,4.671,0,0,0,1.981.41,3.891,3.891,0,0,0,3.309-1.533,7.16,7.16,0,0,0,1.153-4.371,10.907,10.907,0,0,0-.266-2.58A5.045,5.045,0,0,0-24.4-26.6a2.982,2.982,0,0,0-1.229-1.009A4.089,4.089,0,0,0-27.287-27.931ZM-14.234-9.263V-29.843h1.609a.689.689,0,0,1,.729.562l.228,1.821a8.208,8.208,0,0,1,2.254-1.928,5.757,5.757,0,0,1,2.922-.729,5.55,5.55,0,0,1,2.4.508,4.944,4.944,0,0,1,1.836,1.5,7.206,7.206,0,0,1,1.169,2.466,12.659,12.659,0,0,1,.41,3.385,10.609,10.609,0,0,1-.455,3.164,7.706,7.706,0,0,1-1.305,2.535,6.1,6.1,0,0,1-2.087,1.685,6.173,6.173,0,0,1-2.785.615,5.732,5.732,0,0,1-2.436-.47,5.489,5.489,0,0,1-1.783-1.336v6.8Zm6.845-18.668a4.352,4.352,0,0,0-2.315.607,6.672,6.672,0,0,0-1.829,1.715v7.437A4.344,4.344,0,0,0-9.9-16.76a4.671,4.671,0,0,0,1.981.41,3.876,3.876,0,0,0,3.293-1.533,7.16,7.16,0,0,0,1.153-4.371,10.907,10.907,0,0,0-.266-2.58A5.045,5.045,0,0,0-4.506-26.6a2.982,2.982,0,0,0-1.229-1.009A4.089,4.089,0,0,0-7.389-27.931Zm21.749.622a.6.6,0,0,1-.562.334,1.057,1.057,0,0,1-.516-.167q-.288-.167-.706-.372a6.629,6.629,0,0,0-.994-.379,4.742,4.742,0,0,0-1.366-.175,4.031,4.031,0,0,0-1.229.175,2.952,2.952,0,0,0-.933.478,2.115,2.115,0,0,0-.592.706,1.9,1.9,0,0,0-.2.873,1.454,1.454,0,0,0,.341.987,2.967,2.967,0,0,0,.9.683,7.873,7.873,0,0,0,1.275.508q.713.22,1.465.471t1.465.554a5.315,5.315,0,0,1,1.275.759,3.471,3.471,0,0,1,.9,1.116,3.414,3.414,0,0,1,.341,1.586,5.023,5.023,0,0,1-.379,1.965,4.289,4.289,0,0,1-1.123,1.563,5.416,5.416,0,0,1-1.821,1.04,7.483,7.483,0,0,1-2.489.379A7.764,7.764,0,0,1,6.5-14.749a7.384,7.384,0,0,1-2.216-1.343l.637-1.032a.926.926,0,0,1,.288-.3.81.81,0,0,1,.44-.106,1.017,1.017,0,0,1,.577.212q.3.212.736.47a5.664,5.664,0,0,0,1.047.47,4.773,4.773,0,0,0,1.541.212,4.223,4.223,0,0,0,1.381-.2,2.9,2.9,0,0,0,.987-.554,2.194,2.194,0,0,0,.584-.8,2.5,2.5,0,0,0,.19-.971,1.611,1.611,0,0,0-.341-1.055,2.882,2.882,0,0,0-.9-.713,7.359,7.359,0,0,0-1.282-.516q-.721-.22-1.472-.463T7.219-22a5.175,5.175,0,0,1-1.282-.782,3.541,3.541,0,0,1-.9-1.161,3.754,3.754,0,0,1-.341-1.677,4.09,4.09,0,0,1,.364-1.692,4.15,4.15,0,0,1,1.062-1.427,5.232,5.232,0,0,1,1.715-.979,6.863,6.863,0,0,1,2.322-.364,7.345,7.345,0,0,1,2.724.478A6.447,6.447,0,0,1,14.967-28.3Z" transform="translate(231.775 322.825)"/>
    <g id="Group_7919" data-name="Group 7919" transform="translate(157 313.56) rotate(180)">
      <g id="Group_7918" data-name="Group 7918" clip-path="url(#clip-path)">
        <path id="Path_36932" data-name="Path 36932" d="M23.046,14.357a1.966,1.966,0,0,0-2.784,0L13.78,20.839V1.969a1.969,1.969,0,1,0-3.937,0V20.839L3.361,14.357A1.968,1.968,0,1,0,.577,17.14l9.841,9.841a1.974,1.974,0,0,0,2.787,0l9.841-9.841a1.966,1.966,0,0,0,0-2.784" transform="translate(0)" fill="#3e00ac"/>
      </g>
    </g>
  </g>
</svg>
