<svg xmlns="http://www.w3.org/2000/svg" xmlns:xlink="http://www.w3.org/1999/xlink" width="43.442" height="50" viewBox="0 0 43.442 50">
  <defs>
    <clipPath id="clip-path">
      <rect id="Rectangle_3117" data-name="Rectangle 3117" width="43.442" height="50"/>
    </clipPath>
  </defs>
  <g id="Group_7927" data-name="Group 7927" transform="translate(0 0)">
    <g id="Group_7926" data-name="Group 7926" transform="translate(0 -0.001)" clip-path="url(#clip-path)">
      <path id="Path_36948" data-name="Path 36948" d="M16.962,26.744A13.372,13.372,0,1,1,30.334,13.372,13.389,13.389,0,0,1,16.962,26.744m0-23.256a9.884,9.884,0,1,0,9.884,9.884,9.9,9.9,0,0,0-9.884-9.884" transform="translate(4.759 0.001)"/>
      <path id="Path_36949" data-name="Path 36949" d="M41.7,32.766a1.745,1.745,0,0,1-1.744-1.744c0-8.014-8.179-14.535-18.233-14.535S3.488,23.008,3.488,31.022a1.744,1.744,0,0,1-3.488,0C0,21.085,9.744,13,21.721,13s21.721,8.086,21.721,18.023A1.745,1.745,0,0,1,41.7,32.766" transform="translate(0 17.232)"/>
    </g>
  </g>
</svg>
