<svg xmlns="http://www.w3.org/2000/svg" xmlns:xlink="http://www.w3.org/1999/xlink" width="147.91" height="35.034" viewBox="0 0 147.91 35.034">
  <defs>
    <clipPath id="clip-path">
      <rect id="Rectangle_2673" data-name="Rectangle 2673" width="71.602" height="35.033"/>
    </clipPath>
  </defs>
  <g id="Group_6480" data-name="Group 6480" transform="translate(-636 -875)">
    <g id="Group_6476" data-name="Group 6476" transform="translate(710.972 875)">
      <g id="Group_3385" data-name="Group 3385" transform="translate(0 0)">
        <path id="Path_7808" data-name="Path 7808" d="M194.777,135.14v-.413a6.6,6.6,0,0,0-.413-1.952,28.031,28.031,0,0,0-1.877-3.341c-1.211-2.1-2.573-4.528-3.792-6.645-1-1.743-1.938-3.983-4.43-4.017-2.59-.036-3.452,2.252-4.392,3.9-2.985,5.247-9.085,15.805-9.085,15.805H173.6s5.821-10.3,8.71-15.5c.369-.666,1.1-1.539,1.952-1.539,1.29,0,1.935,1.536,2.515,2.59,1.552,2.826,3.048,5.53,4.5,8.259.458.859,1.387,1.988.751,3.154-.415.76-1.252.714-2.44.714,0,.019-11.488,0-11.488,0v2.327h10.437a24.607,24.607,0,0,0,3.453-.113A3.48,3.48,0,0,0,194.777,135.14Z" transform="translate(-121.839 -118.772)"/>
        <g id="Group_3285" data-name="Group 3285" transform="translate(0)">
          <g id="Group_3282" data-name="Group 3282">
            <path id="Path_7809" data-name="Path 7809" d="M71.435,118.772v.488a.984.984,0,0,1-.2.571l-12.518,17.48h12.6V138.5h-14.5v-.516a.858.858,0,0,1,.168-.5l12.546-17.522H57.189v-1.185Z" transform="translate(-56.826 -118.772)"/>
          </g>
          <g id="Group_3283" data-name="Group 3283" transform="translate(19.431)">
            <path id="Path_7810" data-name="Path 7810" d="M103.5,138.5h-1.436V118.772H103.5Z" transform="translate(-102.065 -118.772)"/>
          </g>
          <g id="Group_3284" data-name="Group 3284" transform="translate(27.2)">
            <path id="Path_7811" data-name="Path 7811" d="M129.993,133.589c.056-.148.114-.3.174-.439a3.648,3.648,0,0,1,.2-.411l7.75-13.7a.506.506,0,0,1,.223-.223.9.9,0,0,1,.307-.042h.99V138.5h-1.255V121.685a7.464,7.464,0,0,1,.042-.767L130.662,134.7a.609.609,0,0,1-.558.362h-.223a.627.627,0,0,1-.557-.362l-7.974-13.8a7.574,7.574,0,0,1,.042.78V138.5h-1.24V118.772h.976a.964.964,0,0,1,.314.042.5.5,0,0,1,.23.223l7.959,13.716A5.685,5.685,0,0,1,129.993,133.589Z" transform="translate(-120.152 -118.772)"/>
          </g>
        </g>
      </g>
      <g id="Group_4567" data-name="Group 4567" transform="translate(0 28.446)">
        <path id="Path_27238" data-name="Path 27238" d="M71.516,183.609v.159a.32.32,0,0,1-.064.186l-4.085,5.7h4.113v.387H66.748v-.169a.279.279,0,0,1,.055-.164L70.9,184H66.866v-.387Z" transform="translate(-66.748 -183.536)"/>
        <path id="Path_27239" data-name="Path 27239" d="M86.095,190.047h-.469v-6.438h.469Z" transform="translate(-77.447 -183.536)"/>
        <path id="Path_27240" data-name="Path 27240" d="M98.929,188.445c.018-.049.037-.1.057-.144a1.241,1.241,0,0,1,.066-.134l2.529-4.472a.165.165,0,0,1,.073-.073.283.283,0,0,1,.1-.014h.323v6.438h-.409V184.56a2.44,2.44,0,0,1,.014-.25l-2.534,4.5a.2.2,0,0,1-.182.119h-.073a.2.2,0,0,1-.182-.119l-2.6-4.5a2.472,2.472,0,0,1,.014.255v5.487h-.405v-6.438h.318a.3.3,0,0,1,.1.014.158.158,0,0,1,.075.073l2.6,4.477A1.851,1.851,0,0,1,98.929,188.445Z" transform="translate(-83.166 -183.536)"/>
        <path id="Path_27241" data-name="Path 27241" d="M124.23,186.73a3.912,3.912,0,0,1-.223,1.354,3,3,0,0,1-.628,1.038,2.776,2.776,0,0,1-.969.664,3.432,3.432,0,0,1-2.493,0,2.774,2.774,0,0,1-.969-.664,3.032,3.032,0,0,1-.63-1.038,4.172,4.172,0,0,1,0-2.7,3.031,3.031,0,0,1,.63-1.037,2.81,2.81,0,0,1,.969-.666,3.18,3.18,0,0,1,1.242-.237,3.235,3.235,0,0,1,1.251.234,2.767,2.767,0,0,1,.969.667,3.019,3.019,0,0,1,.628,1.039A3.9,3.9,0,0,1,124.23,186.73Zm-.482,0a3.686,3.686,0,0,0-.186-1.21,2.611,2.611,0,0,0-.526-.909,2.248,2.248,0,0,0-.817-.571,2.747,2.747,0,0,0-1.06-.2,2.705,2.705,0,0,0-1.049.2,2.3,2.3,0,0,0-.819.571,2.6,2.6,0,0,0-.532.909,3.979,3.979,0,0,0,0,2.423,2.6,2.6,0,0,0,.532.908,2.272,2.272,0,0,0,.819.568,2.729,2.729,0,0,0,1.049.2,2.771,2.771,0,0,0,1.06-.2,2.226,2.226,0,0,0,.817-.568,2.615,2.615,0,0,0,.526-.908A3.68,3.68,0,0,0,123.748,186.73Z" transform="translate(-95.847 -183.441)"/>
        <path id="Path_27242" data-name="Path 27242" d="M150.46,189.646a5.036,5.036,0,0,0,.6-.034,3.281,3.281,0,0,0,.507-.1,3.128,3.128,0,0,0,.446-.166q.211-.1.425-.22V187.39h-1.237a.118.118,0,0,1-.084-.032.1.1,0,0,1-.034-.073v-.254h1.779v2.288a4.209,4.209,0,0,1-.5.3,3.3,3.3,0,0,1-.555.221,4.222,4.222,0,0,1-.637.136,5.352,5.352,0,0,1-.746.048,3.345,3.345,0,0,1-1.272-.234,2.817,2.817,0,0,1-.987-.664,2.992,2.992,0,0,1-.64-1.04,4.146,4.146,0,0,1,0-2.709,2.951,2.951,0,0,1,.646-1.037,2.857,2.857,0,0,1,1.017-.665,3.651,3.651,0,0,1,1.34-.234,4.247,4.247,0,0,1,.68.05,3.167,3.167,0,0,1,.58.147,2.738,2.738,0,0,1,.5.241,3.409,3.409,0,0,1,.446.33l-.123.2a.127.127,0,0,1-.114.068.17.17,0,0,1-.078-.018.961.961,0,0,1-.2-.127,2.11,2.11,0,0,0-.351-.209,2.908,2.908,0,0,0-.552-.2,3.262,3.262,0,0,0-.805-.086,3.061,3.061,0,0,0-1.133.2,2.4,2.4,0,0,0-.862.573,2.54,2.54,0,0,0-.55.91,3.545,3.545,0,0,0-.194,1.205,3.6,3.6,0,0,0,.2,1.224,2.621,2.621,0,0,0,.548.917,2.361,2.361,0,0,0,.846.575A2.875,2.875,0,0,0,150.46,189.646Z" transform="translate(-112.401 -183.441)"/>
        <path id="Path_27243" data-name="Path 27243" d="M168.9,187.135v2.912h-.464v-6.438h1.643a2.677,2.677,0,0,1,1.665.43,1.5,1.5,0,0,1,.551,1.262,1.728,1.728,0,0,1-.127.673,1.584,1.584,0,0,1-.366.535,1.95,1.95,0,0,1-.576.377,2.544,2.544,0,0,1-.759.193.739.739,0,0,1,.2.182l2.216,2.784h-.4a.267.267,0,0,1-.125-.028.32.32,0,0,1-.1-.091l-2.061-2.611a.456.456,0,0,0-.166-.141.7.7,0,0,0-.276-.041Zm0-.346h1.119a2.642,2.642,0,0,0,.766-.1,1.653,1.653,0,0,0,.574-.293,1.273,1.273,0,0,0,.357-.459,1.446,1.446,0,0,0,.123-.605,1.184,1.184,0,0,0-.45-1.019,2.187,2.187,0,0,0-1.311-.332H168.9Z" transform="translate(-124.379 -183.536)"/>
        <path id="Path_27244" data-name="Path 27244" d="M190.347,186.73a3.9,3.9,0,0,1-.223,1.354,2.994,2.994,0,0,1-.628,1.038,2.774,2.774,0,0,1-.969.664,3.432,3.432,0,0,1-2.493,0,2.774,2.774,0,0,1-.969-.664,3.031,3.031,0,0,1-.63-1.038,4.164,4.164,0,0,1,0-2.7,3.03,3.03,0,0,1,.63-1.037,2.811,2.811,0,0,1,.969-.666,3.179,3.179,0,0,1,1.242-.237,3.235,3.235,0,0,1,1.251.234,2.766,2.766,0,0,1,.969.667,3.012,3.012,0,0,1,.628,1.039A3.893,3.893,0,0,1,190.347,186.73Zm-.482,0a3.675,3.675,0,0,0-.187-1.21,2.61,2.61,0,0,0-.525-.909,2.248,2.248,0,0,0-.817-.571,2.747,2.747,0,0,0-1.06-.2,2.707,2.707,0,0,0-1.049.2,2.292,2.292,0,0,0-.818.571,2.585,2.585,0,0,0-.533.909,3.97,3.97,0,0,0,0,2.423,2.588,2.588,0,0,0,.533.908,2.269,2.269,0,0,0,.818.568,2.731,2.731,0,0,0,1.049.2,2.771,2.771,0,0,0,1.06-.2,2.226,2.226,0,0,0,.817-.568,2.613,2.613,0,0,0,.525-.908A3.669,3.669,0,0,0,189.865,186.73Z" transform="translate(-133.317 -183.441)"/>
        <path id="Path_27245" data-name="Path 27245" d="M208.373,189.714a2.036,2.036,0,0,0,.831-.162,1.775,1.775,0,0,0,.621-.448,1.964,1.964,0,0,0,.389-.676,2.546,2.546,0,0,0,.134-.839v-3.981h.464v3.981a2.871,2.871,0,0,1-.168.994,2.373,2.373,0,0,1-.484.805,2.231,2.231,0,0,1-.769.539,2.731,2.731,0,0,1-2.033,0,2.231,2.231,0,0,1-.769-.539,2.374,2.374,0,0,1-.484-.805,2.881,2.881,0,0,1-.168-.994v-3.981h.469v3.976a2.554,2.554,0,0,0,.134.84,1.981,1.981,0,0,0,.387.675,1.775,1.775,0,0,0,.618.451A2.015,2.015,0,0,0,208.373,189.714Z" transform="translate(-145.63 -183.536)"/>
        <path id="Path_27246" data-name="Path 27246" d="M226.452,187.453v2.594h-.464v-6.438h1.661a2.553,2.553,0,0,1,1.708.5,1.767,1.767,0,0,1,.575,1.415,1.9,1.9,0,0,1-.157.777,1.733,1.733,0,0,1-.452.612,2.11,2.11,0,0,1-.719.4,2.961,2.961,0,0,1-.955.143Zm0-.373h1.2a2.31,2.31,0,0,0,.764-.118,1.681,1.681,0,0,0,.571-.328,1.417,1.417,0,0,0,.359-.494,1.519,1.519,0,0,0,.125-.62,1.436,1.436,0,0,0-.457-1.142,2.016,2.016,0,0,0-1.363-.4h-1.2Z" transform="translate(-156.994 -183.536)"/>
      </g>
    </g>
    <g id="Group_6479" data-name="Group 6479" transform="translate(636 875)">
      <g id="Group_6478" data-name="Group 6478" clip-path="url(#clip-path)">
        <path id="Path_36299" data-name="Path 36299" d="M936,292.661V301.2c-2.32,3.959-3.962,6.755-3.962,6.755h-5.2s4.472-7.448,9.159-15.289" transform="translate(-864.394 -272.944)"/>
        <path id="Path_36300" data-name="Path 36300" d="M576.617,6.782v8.533c-2.749,4.6-5.573,9.336-7.61,12.782-1.735,2.935-3.326,7-8.107,6.935-4.6-.061-6.325-4.039-8.178-7.135-2.248-3.759-4.763-8.07-7-11.8a49.144,49.144,0,0,1-3.465-5.934,11.35,11.35,0,0,1-.762-3.468V5.96c.432-2.914,2.085-5.185,5.128-5.734A46.925,46.925,0,0,1,553,.026h19.264V4.16s-21.2-.035-21.2,0c-2.193,0-3.737-.084-4.5,1.267-1.175,2.07.54,4.077,1.386,5.6,2.688,4.848,5.45,9.651,8.316,14.67,1.069,1.873,2.261,4.6,4.643,4.6,1.57,0,2.921-1.552,3.6-2.734,3.248-5.63,8.5-14.616,12.115-20.782" transform="translate(-505.015 0)"/>
        <path id="Path_36301" data-name="Path 36301" d="M44.28,29.074V28.34a11.358,11.358,0,0,0-.762-3.467,49.37,49.37,0,0,0-3.465-5.935c-2.236-3.731-4.75-8.043-7-11.8C31.2,4.041,29.476.063,24.878,0,20.1-.062,18.505,4,16.77,6.936,11.26,16.255,0,35.007,0,35.007H5.2S15.941,16.715,21.274,7.469c.682-1.182,2.034-2.734,3.6-2.734,2.381,0,3.573,2.727,4.643,4.6,2.866,5.018,5.627,9.821,8.315,14.669.845,1.525,2.561,3.531,1.386,5.6-.766,1.351-2.311,1.268-4.5,1.268,0,.034-21.2,0-21.2,0v4.133H32.777a47.127,47.127,0,0,0,6.375-.2c3.042-.55,4.7-2.821,5.128-5.735" transform="translate(0 -0.001)"/>
      </g>
    </g>
  </g>
</svg>
