<svg xmlns="http://www.w3.org/2000/svg" xmlns:xlink="http://www.w3.org/1999/xlink" width="130" height="224.789" viewBox="0 0 130 224.789">
  <defs>
    <clipPath id="clip-path">
      <rect id="Rectangle_3112" data-name="Rectangle 3112" width="42.857" height="50" fill="#009105"/>
    </clipPath>
  </defs>
  <g id="Group_8560" data-name="Group 8560" transform="translate(-1740 -428)">
    <g id="Group_7922" data-name="Group 7922" transform="translate(1585 -53.211)">
      <g id="Ellipse_42" data-name="Ellipse 42" transform="translate(155 576)" fill="none" stroke="#009105" stroke-width="3">
        <circle cx="65" cy="65" r="65" stroke="none"/>
        <circle cx="65" cy="65" r="63.5" fill="none"/>
      </g>
    </g>
    <path id="Path_37325" data-name="Path 37325" d="M-47.387-13.272a9.175,9.175,0,0,1,.6,1.245q.259.654.506,1.319.247-.691.518-1.319t.617-1.27l11.962-21.728a1.42,1.42,0,0,1,.666-.691,3.067,3.067,0,0,1,.987-.123H-28V-.5h-4.193v-25.97q0-.518.025-1.11t.074-1.208l-12.11,22.1a1.9,1.9,0,0,1-1.726,1.11h-.691a1.9,1.9,0,0,1-1.726-1.11L-60.73-28.859q.074.641.111,1.258t.037,1.135V-.5h-4.193V-35.838h3.527a3.067,3.067,0,0,1,.987.123,1.42,1.42,0,0,1,.666.691ZM-15-.5V-36.825h4.415v14.946a12.764,12.764,0,0,1,3.564-2.9,9.442,9.442,0,0,1,4.6-1.1,9.194,9.194,0,0,1,3.921.814,7.922,7.922,0,0,1,2.984,2.429,11.717,11.717,0,0,1,1.9,4,20.432,20.432,0,0,1,.666,5.488A17.239,17.239,0,0,1,6.3-8.006,12.39,12.39,0,0,1,4.171-3.887,10.026,10.026,0,0,1,.768-1.15a10.031,10.031,0,0,1-4.526,1,8.353,8.353,0,0,1-4.106-.937A9.34,9.34,0,0,1-10.812-3.7l-.222,2.269A1.056,1.056,0,0,1-12.168-.5ZM-3.857-22.372a7.072,7.072,0,0,0-3.761.987A10.842,10.842,0,0,0-10.59-18.6V-6.514A6.881,6.881,0,0,0-7.963-4.22a7.59,7.59,0,0,0,3.219.666A6.324,6.324,0,0,0,.632-6.045q1.874-2.491,1.874-7.1a17.724,17.724,0,0,0-.432-4.193A8.2,8.2,0,0,0,.829-20.214a4.846,4.846,0,0,0-2-1.64A6.645,6.645,0,0,0-3.857-22.372ZM17.354,7.963V-25.48h2.614a1.119,1.119,0,0,1,1.184.913l.37,2.96a13.338,13.338,0,0,1,3.662-3.132,9.356,9.356,0,0,1,4.748-1.184,9.018,9.018,0,0,1,3.9.826,8.034,8.034,0,0,1,2.984,2.442,11.709,11.709,0,0,1,1.9,4.008,20.57,20.57,0,0,1,.666,5.5,17.239,17.239,0,0,1-.74,5.142,12.523,12.523,0,0,1-2.121,4.119A9.9,9.9,0,0,1,33.126-1.15a10.031,10.031,0,0,1-4.526,1,9.315,9.315,0,0,1-3.958-.765,8.92,8.92,0,0,1-2.9-2.17V7.963ZM28.477-22.372a7.072,7.072,0,0,0-3.761.987A10.842,10.842,0,0,0,21.744-18.6V-6.514A7.059,7.059,0,0,0,24.395-4.22a7.59,7.59,0,0,0,3.219.666,6.3,6.3,0,0,0,5.352-2.491q1.874-2.491,1.874-7.1a17.724,17.724,0,0,0-.432-4.193,8.2,8.2,0,0,0-1.245-2.873,4.846,4.846,0,0,0-2-1.64A6.645,6.645,0,0,0,28.477-22.372Zm35.342,1.011a.973.973,0,0,1-.913.543,1.717,1.717,0,0,1-.839-.271q-.469-.271-1.147-.6a10.771,10.771,0,0,0-1.615-.617,7.706,7.706,0,0,0-2.22-.284,6.55,6.55,0,0,0-2,.284,4.8,4.8,0,0,0-1.517.777,3.437,3.437,0,0,0-.962,1.147,3.079,3.079,0,0,0-.333,1.418,2.363,2.363,0,0,0,.555,1.6,4.822,4.822,0,0,0,1.467,1.11,12.793,12.793,0,0,0,2.072.826q1.159.358,2.38.765t2.38.9A8.636,8.636,0,0,1,63.2-12.532a5.64,5.64,0,0,1,1.467,1.813,5.548,5.548,0,0,1,.555,2.577,8.162,8.162,0,0,1-.617,3.194,6.97,6.97,0,0,1-1.825,2.54,8.8,8.8,0,0,1-2.96,1.689A12.159,12.159,0,0,1,55.779-.1a12.617,12.617,0,0,1-4.735-.851,12,12,0,0,1-3.6-2.183l1.036-1.677a1.5,1.5,0,0,1,.469-.493,1.316,1.316,0,0,1,.715-.173,1.653,1.653,0,0,1,.937.345q.493.345,1.2.765a9.2,9.2,0,0,0,1.7.765,7.756,7.756,0,0,0,2.5.345,6.862,6.862,0,0,0,2.244-.333,4.714,4.714,0,0,0,1.6-.9A3.565,3.565,0,0,0,60.8-5.8a4.062,4.062,0,0,0,.308-1.578,2.618,2.618,0,0,0-.555-1.714,4.683,4.683,0,0,0-1.467-1.159A11.958,11.958,0,0,0,57-11.089q-1.172-.358-2.392-.752t-2.392-.9a8.41,8.41,0,0,1-2.084-1.27A5.754,5.754,0,0,1,48.664-15.9a6.1,6.1,0,0,1-.555-2.725,6.647,6.647,0,0,1,.592-2.75,6.744,6.744,0,0,1,1.726-2.318,8.5,8.5,0,0,1,2.787-1.591,11.153,11.153,0,0,1,3.773-.592,11.935,11.935,0,0,1,4.427.777,10.477,10.477,0,0,1,3.391,2.133Z" transform="translate(1804.775 464.825)"/>
    <g id="Group_7934" data-name="Group 7934" transform="translate(1783.571 562.789)">
      <g id="Group_7918" data-name="Group 7918" clip-path="url(#clip-path)">
        <path id="Path_36932" data-name="Path 36932" d="M41.811,26.046a3.567,3.567,0,0,0-5.05,0L25,37.807V3.571a3.571,3.571,0,1,0-7.143,0V37.807L6.1,26.046a3.571,3.571,0,0,0-5.05,5.05L18.9,48.95a3.582,3.582,0,0,0,5.057,0L41.811,31.1a3.567,3.567,0,0,0,0-5.05" transform="translate(-0.001)" fill="#009105"/>
      </g>
    </g>
  </g>
</svg>
