<svg xmlns="http://www.w3.org/2000/svg" width="50" height="36.096" viewBox="0 0 50 36.096">
  <g id="Group_7928" data-name="Group 7928" transform="translate(-30.157 -435.002)">
    <path id="Path_36924" data-name="Path 36924" d="M46.04,16.418C38.49,9.173,31.162,5.612,24.121,5.725c-6.668.143-13.392,3.71-19.99,10.606L0,12.377C7.685,4.345,15.759.183,24,.007c8.53-.2,17.314,3.948,26,12.283Z" transform="translate(30.157 435.001)"/>
    <path id="Path_36925" data-name="Path 36925" d="M35.6,18.044c-5.124-4.917-10.079-7.35-14.752-7.257-4.439.095-8.952,2.508-13.412,7.17L3.3,14C8.849,8.205,14.71,5.2,20.722,5.07c6.315-.121,12.577,2.845,18.835,8.847Z" transform="translate(33.516 440.155)"/>
    <path id="Path_36926" data-name="Path 36926" d="M24.317,19.3c-2.5-2.4-4.826-3.642-7.017-3.547-2.03.042-4.152,1.206-6.307,3.46L6.861,15.257c3.242-3.389,6.714-5.147,10.318-5.223,3.726-.125,7.461,1.648,11.1,5.137Z" transform="translate(37.139 445.203)"/>
    <path id="Path_36927" data-name="Path 36927" d="M13.783,20.752a3.147,3.147,0,0,0,3.282-2.976A3.146,3.146,0,0,0,13.783,14.8,3.146,3.146,0,0,0,10.5,17.776a3.147,3.147,0,0,0,3.282,2.976" transform="translate(40.842 450.059)" fill-rule="evenodd"/>
    <path id="Path_36928" data-name="Path 36928" d="M13.928,21.183a3.43,3.43,0,0,1-3.569-3.264,3.428,3.428,0,0,1,3.569-3.26,3.43,3.43,0,0,1,3.569,3.26,3.432,3.432,0,0,1-3.569,3.264m0-5.954a2.86,2.86,0,0,0-3,2.689,2.86,2.86,0,0,0,3,2.691,2.858,2.858,0,0,0,3-2.691,2.858,2.858,0,0,0-3-2.689" transform="translate(40.698 449.915)"/>
  </g>
</svg>
