<svg xmlns="http://www.w3.org/2000/svg" width="291.18" height="14.66" viewBox="0 0 291.18 14.66">
  <path id="Path_37310" data-name="Path 37310" d="M7.26-5.7V0H5.33V-5.7L.08-14.33h1.7a.6.6,0,0,1,.41.13,1.242,1.242,0,0,1,.26.32L5.73-8.31a6.864,6.864,0,0,1,.335.66q.135.31.245.61.11-.31.24-.62a5.438,5.438,0,0,1,.33-.65l3.27-5.57a1.28,1.28,0,0,1,.245-.305.569.569,0,0,1,.4-.145h1.72ZM30.83-7.16A8.271,8.271,0,0,1,30.32-4.2,6.767,6.767,0,0,1,28.88-1.89,6.436,6.436,0,0,1,26.645-.385,7.537,7.537,0,0,1,23.76.15a7.5,7.5,0,0,1-2.88-.535A6.447,6.447,0,0,1,18.65-1.89,6.767,6.767,0,0,1,17.21-4.2,8.272,8.272,0,0,1,16.7-7.16a8.272,8.272,0,0,1,.51-2.955,6.821,6.821,0,0,1,1.44-2.32,6.471,6.471,0,0,1,2.23-1.515,7.438,7.438,0,0,1,2.88-.54,7.475,7.475,0,0,1,2.885.54,6.46,6.46,0,0,1,2.235,1.515,6.821,6.821,0,0,1,1.44,2.32A8.272,8.272,0,0,1,30.83-7.16Zm-1.99,0a7.283,7.283,0,0,0-.36-2.37,5.013,5.013,0,0,0-1.02-1.775,4.426,4.426,0,0,0-1.6-1.115,5.432,5.432,0,0,0-2.1-.39,5.4,5.4,0,0,0-2.09.39,4.474,4.474,0,0,0-1.6,1.115A4.972,4.972,0,0,0,19.04-9.53a7.283,7.283,0,0,0-.36,2.37A7.237,7.237,0,0,0,19.04-4.8a4.978,4.978,0,0,0,1.025,1.77,4.421,4.421,0,0,0,1.6,1.11,5.466,5.466,0,0,0,2.09.385,5.494,5.494,0,0,0,2.1-.385,4.374,4.374,0,0,0,1.6-1.11A5.019,5.019,0,0,0,28.48-4.8,7.237,7.237,0,0,0,28.84-7.16ZM43.05-1.54a4,4,0,0,0,1.59-.3,3.335,3.335,0,0,0,1.185-.84,3.674,3.674,0,0,0,.74-1.29,5.1,5.1,0,0,0,.255-1.65v-8.71h1.93v8.71a6.536,6.536,0,0,1-.4,2.3,5.344,5.344,0,0,1-1.13,1.835A5.167,5.167,0,0,1,45.43-.27a6.155,6.155,0,0,1-2.38.44,6.155,6.155,0,0,1-2.38-.44,5.219,5.219,0,0,1-1.8-1.215A5.3,5.3,0,0,1,37.735-3.32a6.536,6.536,0,0,1-.4-2.3v-8.71h1.93v8.7a5.1,5.1,0,0,0,.255,1.65,3.674,3.674,0,0,0,.74,1.29,3.378,3.378,0,0,0,1.19.845A3.98,3.98,0,0,0,43.05-1.54ZM58.21-5.98V0H56.28V-14.33h4.05a8.849,8.849,0,0,1,2.35.275,4.485,4.485,0,0,1,1.635.795,3.183,3.183,0,0,1,.955,1.255,4.194,4.194,0,0,1,.31,1.645,4.124,4.124,0,0,1-.24,1.42,3.75,3.75,0,0,1-.695,1.185,4.158,4.158,0,0,1-1.11.895,5.5,5.5,0,0,1-1.485.56,2.049,2.049,0,0,1,.64.61L66.87,0H65.15a.848.848,0,0,1-.78-.41L60.65-5.53a1.083,1.083,0,0,0-.37-.345,1.334,1.334,0,0,0-.6-.105Zm0-1.41h2.03a4.942,4.942,0,0,0,1.495-.2,3.042,3.042,0,0,0,1.08-.58,2.406,2.406,0,0,0,.655-.9,2.923,2.923,0,0,0,.22-1.15,2.284,2.284,0,0,0-.845-1.93,4.084,4.084,0,0,0-2.515-.65H58.21ZM83.12,0H81.18V-14.33h1.94Zm8.84-14.33a.87.87,0,0,1,.385.065A1,1,0,0,1,92.63-14l8.3,10.8q-.03-.26-.04-.505t-.01-.475V-14.33h1.7V0h-.98a.834.834,0,0,1-.385-.08.972.972,0,0,1-.305-.27L92.62-11.14q.02.25.03.49t.01.44V0h-1.7V-14.33Zm27.88,0v1.63h-4.63V0h-1.94V-12.7h-4.65v-1.63Zm14.87,0v1.58h-6.88v4.76h5.57v1.52h-5.57v4.89h6.88V0h-8.83V-14.33Zm8.92,8.35V0H141.7V-14.33h4.05a8.849,8.849,0,0,1,2.35.275,4.485,4.485,0,0,1,1.635.795,3.183,3.183,0,0,1,.955,1.255A4.194,4.194,0,0,1,151-10.36a4.124,4.124,0,0,1-.24,1.42,3.75,3.75,0,0,1-.695,1.185,4.158,4.158,0,0,1-1.11.895,5.5,5.5,0,0,1-1.485.56,2.049,2.049,0,0,1,.64.61L152.29,0h-1.72a.848.848,0,0,1-.78-.41l-3.72-5.12a1.083,1.083,0,0,0-.37-.345,1.334,1.334,0,0,0-.6-.105Zm0-1.41h2.03a4.942,4.942,0,0,0,1.5-.2,3.042,3.042,0,0,0,1.08-.58,2.406,2.406,0,0,0,.655-.9,2.923,2.923,0,0,0,.22-1.15,2.284,2.284,0,0,0-.845-1.93,4.084,4.084,0,0,0-2.515-.65h-2.12Zm15.75-6.94a.87.87,0,0,1,.385.065,1,1,0,0,1,.285.265l8.3,10.8q-.03-.26-.04-.505t-.01-.475V-14.33H170V0h-.98a.834.834,0,0,1-.385-.08.972.972,0,0,1-.3-.27l-8.29-10.79q.02.25.03.49t.01.44V0h-1.7V-14.33Zm26.95,0v1.58h-6.88v4.76h5.57v1.52h-5.57v4.89h6.88V0H177.5V-14.33Zm16.55,0v1.63h-4.63V0h-1.94V-12.7h-4.65v-1.63Zm21.24,2.24a.775.775,0,0,1-.19.225.422.422,0,0,1-.26.075.692.692,0,0,1-.4-.17,6.3,6.3,0,0,0-.57-.375,4.626,4.626,0,0,0-.83-.375,3.571,3.571,0,0,0-1.175-.17,3.474,3.474,0,0,0-1.15.175,2.445,2.445,0,0,0-.835.475,1.95,1.95,0,0,0-.505.7,2.238,2.238,0,0,0-.17.875,1.617,1.617,0,0,0,.295.995,2.542,2.542,0,0,0,.78.675,5.975,5.975,0,0,0,1.1.485q.615.205,1.26.425t1.26.495a4.432,4.432,0,0,1,1.1.7,3.168,3.168,0,0,1,.78,1.03,3.428,3.428,0,0,1,.295,1.5,4.838,4.838,0,0,1-.32,1.765,4.069,4.069,0,0,1-.935,1.435,4.374,4.374,0,0,1-1.51.96,5.554,5.554,0,0,1-2.035.35,6.214,6.214,0,0,1-2.535-.505A5.946,5.946,0,0,1,215.62-1.71l.56-.92a.736.736,0,0,1,.2-.185.457.457,0,0,1,.255-.075.8.8,0,0,1,.48.225,8,8,0,0,0,.675.5,5.156,5.156,0,0,0,.98.5,3.868,3.868,0,0,0,1.4.225,3.694,3.694,0,0,0,1.23-.19,2.612,2.612,0,0,0,.915-.535A2.318,2.318,0,0,0,222.89-3a2.757,2.757,0,0,0,.2-1.07,1.8,1.8,0,0,0-.295-1.065,2.445,2.445,0,0,0-.775-.695,5.417,5.417,0,0,0-1.1-.475l-1.26-.4a12.7,12.7,0,0,1-1.26-.475,4.1,4.1,0,0,1-1.1-.7,3.216,3.216,0,0,1-.775-1.075,3.829,3.829,0,0,1-.295-1.6,3.8,3.8,0,0,1,.295-1.47,3.789,3.789,0,0,1,.855-1.26,4.144,4.144,0,0,1,1.385-.88,5.073,5.073,0,0,1,1.9-.33,6.066,6.066,0,0,1,2.19.38,5.043,5.043,0,0,1,1.73,1.1Zm9.39,6.73V0h-1.93V-14.33h4.23a7.938,7.938,0,0,1,2.365.315,4.543,4.543,0,0,1,1.665.9,3.607,3.607,0,0,1,.985,1.4,4.929,4.929,0,0,1,.325,1.83,4.664,4.664,0,0,1-.35,1.83,3.937,3.937,0,0,1-1.025,1.43A4.761,4.761,0,0,1,238.1-5.7a7.2,7.2,0,0,1-2.29.335Zm0-1.54h2.3a4.469,4.469,0,0,0,1.465-.22,3,3,0,0,0,1.065-.615,2.554,2.554,0,0,0,.65-.945,3.23,3.23,0,0,0,.22-1.21,2.749,2.749,0,0,0-.845-2.14,3.688,3.688,0,0,0-2.555-.77h-2.3Zm22.92-7.43v1.58h-6.88v4.76h5.57v1.52h-5.57v4.89h6.88V0H247.6V-14.33Zm15.62,0v1.58h-6.88v4.76h5.57v1.52h-5.57v4.89h6.88V0h-8.83V-14.33Zm19.21,7.17a8.07,8.07,0,0,1-.51,2.93,6.5,6.5,0,0,1-1.44,2.26,6.42,6.42,0,0,1-2.23,1.455A7.756,7.756,0,0,1,284.2,0h-5.36V-14.33h5.36a7.756,7.756,0,0,1,2.88.515,6.385,6.385,0,0,1,2.23,1.46,6.55,6.55,0,0,1,1.44,2.265A8.07,8.07,0,0,1,291.26-7.16Zm-1.99,0a7.192,7.192,0,0,0-.36-2.36,4.974,4.974,0,0,0-1.02-1.76,4.35,4.35,0,0,0-1.6-1.1,5.53,5.53,0,0,0-2.09-.38h-3.41V-1.57h3.41a5.53,5.53,0,0,0,2.09-.38,4.379,4.379,0,0,0,1.6-1.1A4.922,4.922,0,0,0,288.91-4.8,7.192,7.192,0,0,0,289.27-7.16Z" transform="translate(-0.08 14.49)"/>
</svg>
