<svg xmlns="http://www.w3.org/2000/svg" xmlns:xlink="http://www.w3.org/1999/xlink" width="78.639" height="35.03" viewBox="0 0 78.639 35.03">
  <defs>
    <clipPath id="clip-path">
      <rect id="Rectangle_983" data-name="Rectangle 983" width="78.639" height="35.03"/>
    </clipPath>
  </defs>
  <g id="Group_4797" data-name="Group 4797" transform="translate(0 0)">
    <g id="Group_4796" data-name="Group 4796" transform="translate(0 0)" clip-path="url(#clip-path)">
      <path id="Path_27459" data-name="Path 27459" d="M149.5,2.817l-7.975,5.826-5.405,3.948V24.911l5.818,4.241,7.563,5.514c.961.721,2.063.961,2.063-1.022V3.839c0-1.743-.9-1.983-2.063-1.022" transform="translate(-72.928 -1.21)"/>
      <path id="Path_27460" data-name="Path 27460" d="M.221,25.477H7.764L.1,36.178a.523.523,0,0,0-.1.306V36.8H8.854v-.724h-7.7L8.8,25.4a.6.6,0,0,0,.119-.349v-.3H.221Z" transform="translate(0 -13.261)"/>
      <rect id="Rectangle_982" data-name="Rectangle 982" width="0.877" height="12.046" transform="translate(11.867 11.492)"/>
      <path id="Path_27461" data-name="Path 27461" d="M41.572,33.292l-4.861-8.377a.3.3,0,0,0-.14-.136.587.587,0,0,0-.192-.026h-.6V36.8h.757V26.532a4.712,4.712,0,0,0-.025-.476l4.87,8.428a.383.383,0,0,0,.34.221h.06v-.921a3.5,3.5,0,0,0-.214-.492" transform="translate(-19.171 -13.261)"/>
      <path id="Path_27462" data-name="Path 27462" d="M88.483,10.992l5.75-4.2A9.689,9.689,0,0,0,84.955,0H50.48a1.76,1.76,0,0,0-1.769,1.747V20.524c0,.007.006.012.008.018q.051-.136.106-.268a2.214,2.214,0,0,1,.123-.251l4.733-8.369a.306.306,0,0,1,.136-.136.546.546,0,0,1,.187-.026h.6V23.539h-.766V13.272a4.52,4.52,0,0,1,.026-.468l-4.742,8.42a.372.372,0,0,1-.341.221h-.076V25.4a9.68,9.68,0,0,0,9.716,9.631H92.9a1.76,1.76,0,0,0,1.769-1.747V28.608L88.483,24.1ZM57.568,31.1h-.24V27.884a1.373,1.373,0,0,1,.008-.147l-1.484,2.635a.117.117,0,0,1-.107.07H55.7a.121.121,0,0,1-.107-.07l-1.524-2.637a1.387,1.387,0,0,1,.008.149V31.1h-.237v-3.77h.187a.179.179,0,0,1,.06.008.1.1,0,0,1,.044.042L55.655,30a1.062,1.062,0,0,1,.069.16c.011-.028.022-.057.033-.084A.82.82,0,0,1,55.8,30l1.481-2.619a.1.1,0,0,1,.042-.042.167.167,0,0,1,.059-.008h.189Zm4.444-3.544H60.027v1.524h1.652V29.3H60.027V30.87h1.985V31.1h-2.26v-3.77h2.26Zm4.214,0H64.241v1.524h1.651V29.3H64.241V30.87h1.985V31.1H63.967v-3.77h2.259Zm4.417.006H69.319V31.1h-.272V27.559H67.715v-.232h2.928Zm0-6.07a2.125,2.125,0,0,1-1.7,1.972,15.011,15.011,0,0,1-2.109.069H60.463V22.109s7.015.012,7.016,0c.726,0,1.236.028,1.49-.436.389-.712-.179-1.4-.459-1.926-.89-1.667-1.8-3.318-2.751-5.044-.354-.644-.748-1.582-1.536-1.582-.519,0-.967.533-1.192.94-1.765,3.179-5.319,9.469-5.319,9.469h-1.72s3.726-6.448,5.549-9.652c.574-1.009,1.1-2.407,2.682-2.385,1.521.021,2.093,1.389,2.705,2.454.744,1.293,1.576,2.775,2.316,4.058a17.107,17.107,0,0,1,1.147,2.041,4.04,4.04,0,0,1,.252,1.192ZM85.786,32.954a.472.472,0,0,1-.377.437,3.3,3.3,0,0,1-.468.015H83.527v-.315s1.557,0,1.557,0c.161,0,.274.006.331-.1.086-.158-.039-.311-.1-.427-.2-.37-.4-.737-.61-1.12-.078-.143-.166-.351-.341-.351-.116,0-.214.118-.265.209-.392.705-1.181,2.1-1.181,2.1h-.382s.827-1.431,1.231-2.142c.128-.224.244-.534.6-.529s.464.308.6.545c.165.287.35.616.514.9a3.824,3.824,0,0,1,.254.453.9.9,0,0,1,.056.265Zm.852.454c-.338,0-.465-.308-.6-.544-.165-.287-.35-.616-.514-.9a3.765,3.765,0,0,1-.254-.453.888.888,0,0,1-.056-.265v-.056a.472.472,0,0,1,.377-.438,3.3,3.3,0,0,1,.468-.015h1.415v.316s-1.557,0-1.557,0c-.161,0-.275-.006-.331.1-.086.158.04.311.1.428.2.37.4.736.611,1.119.078.143.166.351.341.351.115,0,.214-.118.265-.208.391-.706,1.181-2.1,1.181-2.1h.382s-.827,1.431-1.232,2.142c-.127.224-.244.534-.6.529m3.16-2.218a.472.472,0,0,1,.376-.438,3.31,3.31,0,0,1,.468-.015h1.415v.316s-1.557,0-1.557,0c-.161,0-.274-.006-.331.1-.086.158.04.311.1.428.2.37.4.736.61,1.119.078.143.166.351.341.351.115,0,.214-.118.265-.208.392-.706,1.181-2.1,1.181-2.1h.382s-.827,1.431-1.231,2.142c-.128.224-.245.534-.6.529s-.464-.308-.6-.544c-.165-.287-.35-.616-.514-.9a3.763,3.763,0,0,1-.254-.453.887.887,0,0,1-.056-.265Zm-.852-.455c.338,0,.464.308.6.545.165.287.35.616.514.9a3.758,3.758,0,0,1,.254.453.887.887,0,0,1,.056.265v.056a.472.472,0,0,1-.377.437,3.31,3.31,0,0,1-.468.015H88.112v-.315s1.557,0,1.557,0c.161,0,.274.006.331-.1.086-.158-.04-.311-.1-.427-.2-.37-.4-.737-.611-1.12-.078-.143-.166-.351-.341-.351-.115,0-.214.118-.265.209-.392.705-1.181,2.1-1.181,2.1H87.12s.827-1.431,1.232-2.142c.127-.224.244-.534.6-.529" transform="translate(-26.097 0)"/>
    </g>
  </g>
</svg>
