<svg xmlns="http://www.w3.org/2000/svg" xmlns:xlink="http://www.w3.org/1999/xlink" width="103.107" height="35.03" viewBox="0 0 103.107 35.03">
  <defs>
    <clipPath id="clip-path">
      <rect id="Rectangle_2276" data-name="Rectangle 2276" width="103.107" height="35.03"/>
    </clipPath>
  </defs>
  <g id="Group_5945" data-name="Group 5945" transform="translate(0 0)">
    <g id="Group_5944" data-name="Group 5944" transform="translate(0 0)" clip-path="url(#clip-path)">
      <path id="Path_28412" data-name="Path 28412" d="M25.945,0V.867A1.754,1.754,0,0,1,25.6,1.881L3.367,32.926h22.38v2.1H0v-.915a1.519,1.519,0,0,1,.3-.891L22.578,2.1H.644V0Z" transform="translate(0 0)"/>
      <path id="Path_28413" data-name="Path 28413" d="M65.869,0V2.154h-12.3V35.03H51.04V2.154H38.662V0Z" transform="translate(-9.169 0)"/>
      <rect id="Rectangle_2274" data-name="Rectangle 2274" width="15.455" height="2.104" transform="translate(60.248 16.834)"/>
      <rect id="Rectangle_2275" data-name="Rectangle 2275" width="17.93" height="2.105" transform="translate(60.248 0)"/>
      <path id="Path_28414" data-name="Path 28414" d="M116.46,19.879a4.016,4.016,0,0,0-1.065-.99,13.936,13.936,0,0,0,4.135-1.052,10.624,10.624,0,0,0,3.131-2.055,8.6,8.6,0,0,0,1.993-2.909,9.42,9.42,0,0,0,.693-3.664,8.187,8.187,0,0,0-3-6.87q-3-2.339-9.06-2.34h-6.157V2.005h6.157q4.679,0,7.129,1.807a6.438,6.438,0,0,1,2.451,5.546,7.825,7.825,0,0,1-.668,3.292,6.9,6.9,0,0,1-1.944,2.5,9,9,0,0,1-3.119,1.6,14.413,14.413,0,0,1-4.171.557h-5.835v1.881h4.324a3.766,3.766,0,0,1,1.5.224,2.477,2.477,0,0,1,.9.767l11.214,14.21a1.786,1.786,0,0,0,.558.5,1.458,1.458,0,0,0,.68.148h2.2Z" transform="translate(-25.409 0)"/>
    </g>
  </g>
</svg>
